<svg width="74" height="67" viewBox="0 0 74 67" fill="none" xmlns="http://www.w3.org/2000/svg">
<path d="M34.2992 5C30.6326 10.1667 24.6992 25.5 30.2992 45.5C32.7992 43.6667 38.2992 37 40.2992 25C42.2992 13 37.1326 6.66667 34.2992 5Z" fill="#01AD0D" stroke="#008728"/>
<path d="M25 32.5001C20.2 39.3001 21.6667 47.6668 23 51.0001C27 53.0001 34 52 39.5 49C45 46 59 19.5 62 12.5C65.6429 3.99999 62 3.50001 55 8.00001C46.8333 12.5 29.8 25.7001 25 32.5001Z" fill="#F5FC2F" stroke="#FFE100"/>
<path d="M25.7733 45.7754C29.8839 39.432 44.2614 26.1075 68.8875 23.5559C67.9567 27.1395 64.4198 39.4401 50.5 43.5C38.5 47 28.8675 48.1936 25.7733 45.7754Z" fill="#01AD0D" stroke="#008728"/>
<path d="M31.1024 34.2666C32.7655 41.0505 24.9424 48.0543 20.8229 50.7082C21.84 49.8029 21.2701 43.0183 19.2694 38.7225C17.2687 34.4267 12.9284 26.1368 13.9046 20.4066C14.6855 15.8225 19.4263 10.2255 21.699 8C24.1405 13.9289 29.4393 27.4828 31.1024 34.2666Z" fill="#259829" stroke="#008728"/>
<path d="M46.7654 54.2272C53.1421 54.0894 59.4843 44.4165 61.8583 39.5973C61.0387 40.8535 54.6889 42.0836 50.6269 41.2243C46.5649 40.365 38.7141 38.2276 33.388 40.7226C29.1272 42.7187 24.0207 48.9391 22 51.7998C27.5981 52.6664 40.3886 54.3651 46.7654 54.2272Z" fill="#259829" stroke="#008728"/>
<circle cx="23.5" cy="20.5" r="18.5" stroke="#4A4A4A" stroke-width="4"/>
<path d="M55 60C56.0911 61.2469 57.9864 61.3733 59.2333 60.2822C60.4802 59.1912 60.6065 57.2959 59.5155 56.049L55 60ZM34 36L55 60L59.5155 56.049L38.5155 32.049L34 36Z" fill="#4A4A4A"/>
<path d="M24.8382 24.7505L23.351 28.0729L20.7699 30.0059L20.45 30.6872L18.115 32.8776L17.4804 30.2609L18.3331 24.3218C18.3813 22.8133 18.7893 19.0329 20.0359 15.9791C21.2825 12.9253 22.5824 14.6609 23.0765 15.9105L24.4878 20.1541L24.8382 24.7505Z" fill="#D9D9D9"/>
<path d="M20.5211 30.1923L20.7699 30.0059M20.7699 30.0059L23.351 28.0729L24.8382 24.7505L24.4878 20.1541L23.0765 15.9105C22.5824 14.6609 21.2825 12.9253 20.0359 15.9791C18.7893 19.0329 18.3813 22.8133 18.3331 24.3218L17.4804 30.2609L18.115 32.8776L20.45 30.6872L20.7699 30.0059Z" stroke="#4AA364"/>
</svg>
